<?xml version="1.0" encoding="UTF-8" standalone="no"?>
<!-- Created with Inkscape (http://www.inkscape.org/) -->

<svg
   width="8.4666662mm"
   height="6.4552183mm"
   viewBox="0 0 8.4666662 6.4552183"
   version="1.1"
   id="svg1"
   xml:space="preserve"
   xmlns="http://www.w3.org/2000/svg"
   xmlns:svg="http://www.w3.org/2000/svg"><defs
     id="defs1" /><g
     id="layer1"
     transform="translate(-70.655143,-115.89139)"><path
       style="fill:#ff4141;stroke:#6c9aff;stroke-width:0;stroke-dasharray:none"
       d="m 73.698449,117.96429 0.820741,-1.99323 c 0,0 0,-0.16749 0.167499,-0.0168 0.167498,0.15075 4.354935,3.51746 4.354935,3.51746 0,0 0.201,0.10049 -0.03347,0.18424 -0.234493,0.0837 -8.140388,2.67997 -8.140388,2.67997 0,0 -0.401992,0.0837 -0.100496,-0.21775 0.301495,-0.3015 2.076975,-2.41197 2.076975,-2.41197 0,0 0.150748,-0.0502 0.08375,0.11725 -0.06702,0.1675 -0.837485,1.49073 -0.837485,1.49073 0,0 -0.05024,0.11725 0.117247,0.0167 0.167498,-0.1005 3.467199,-2.21096 3.467199,-2.21096 l -0.887736,-2.78047 -0.921237,1.67497 c 0,0 -0.18463,0.17246 -0.167499,-0.0502 z"
       id="path1" /></g></svg>
